<svg width="85" height="85" viewBox="0 0 85 85" fill="none" xmlns="http://www.w3.org/2000/svg">
<path d="M15.7263 56.8129L20.6004 51.9388C21.8824 52.6102 23.2211 53.1587 24.6031 53.5802V60.4833C24.6031 61.2479 25.2218 61.8667 25.9865 61.8667H36.8802C37.6448 61.8667 38.2635 61.2479 38.2635 60.4833V53.5802C39.6455 53.1587 40.9843 52.6102 42.2663 51.9388L47.1404 56.8129C47.6807 57.3533 48.5561 57.3533 49.0965 56.8129L56.8129 49.0965C57.3533 48.5561 57.3533 47.6807 56.8129 47.1404L51.9388 42.2663C52.6102 40.9843 53.1587 39.6455 53.5802 38.2635H60.4833C61.2479 38.2635 61.8667 37.6448 61.8667 36.8802V25.9865C61.8667 25.2218 61.2479 24.6031 60.4833 24.6031H53.5802C53.1587 23.2211 52.6102 21.8824 51.9388 20.6004L56.8129 15.7263C57.3533 15.1859 57.3533 14.3105 56.8129 13.7702L49.0965 6.05376C48.5561 5.5134 47.6807 5.5134 47.1404 6.05376L42.2663 10.9278C40.9843 10.2564 39.6455 9.70798 38.2635 9.28649V2.38333C38.2635 1.61872 37.6448 1 36.8802 1H25.9865C25.2218 1 24.6031 1.61872 24.6031 2.38333V9.28649C23.2211 9.70798 21.8824 10.2564 20.6004 10.9278L15.7263 6.05376C15.1859 5.5134 14.3105 5.5134 13.7702 6.05376L6.05376 13.7702C5.5134 14.3105 5.5134 15.1859 6.05376 15.7263L10.9278 20.6004C10.2564 21.8824 9.70798 23.2211 9.28649 24.6031H2.38333C1.61872 24.6031 1 25.2218 1 25.9865V36.8802C1 37.6448 1.61872 38.2635 2.38333 38.2635H9.28649C9.70798 39.6455 10.2564 40.9843 10.9278 42.2663L6.05376 47.1404C5.5134 47.6807 5.5134 48.5561 6.05376 49.0965L13.7702 56.8129C14.3105 57.3533 15.1859 57.3533 15.7263 56.8129ZM13.6202 43.4862C14.0647 43.0417 14.1538 42.3541 13.8364 41.811C12.8732 40.1602 12.1464 38.3865 11.6763 36.5398C11.5209 35.9265 10.9684 35.4969 10.3361 35.4969H3.76667V27.3698H10.3361C10.9684 27.3698 11.5209 26.9402 11.6763 26.3269C12.1464 24.4802 12.8732 22.7064 13.8364 21.0556C14.1538 20.5126 14.0647 19.825 13.6202 19.3805L8.98794 14.7482L14.7482 8.98794L19.3805 13.6202C19.825 14.0633 20.5126 14.1538 21.0556 13.8364C22.7064 12.8732 24.4802 12.1464 26.3269 11.6763C26.9402 11.5209 27.3698 10.9684 27.3698 10.3361V3.76667H35.4969V10.3361C35.4969 10.9684 35.9265 11.5209 36.5398 11.6763C38.3865 12.1464 40.1602 12.8732 41.811 13.8364C42.3541 14.1538 43.0431 14.0633 43.4862 13.6202L48.1184 8.98794L53.8787 14.7482L49.2465 19.3805C48.802 19.825 48.7128 20.5126 49.0303 21.0556C49.9935 22.7064 50.7203 24.4802 51.1904 26.3269C51.3458 26.9402 51.8983 27.3698 52.5305 27.3698H59.1V35.4969H52.5305C51.8983 35.4969 51.3458 35.9265 51.1904 36.5398C50.7203 38.3865 49.9935 40.1602 49.0303 41.811C48.7128 42.3541 48.802 43.0417 49.2465 43.4862L53.8787 48.1184L48.1184 53.8787L43.4862 49.2465C43.0431 48.8034 42.3541 48.7128 41.811 49.0303C40.1602 49.9935 38.3865 50.7203 36.5398 51.1904C35.9265 51.3458 35.4969 51.8983 35.4969 52.5305V59.1H27.3698V52.5305C27.3698 51.8983 26.9402 51.3458 26.3269 51.1904C24.4802 50.7203 22.7064 49.9935 21.0556 49.0303C20.5126 48.7128 19.825 48.8034 19.3805 49.2465L14.7482 53.8787L8.98794 48.1184L13.6202 43.4862Z" fill="#2DA1D9" stroke="white"/>
<path d="M31.3972 48.8423C31.4219 48.8498 31.4442 48.8498 31.4688 48.8423C41.0518 48.8227 48.8436 41.021 48.8436 31.4335C47.8863 8.33617 14.9762 8.3429 14.0225 31.4336C14.0225 41.021 21.8143 48.8227 31.3972 48.8423ZM31.433 16.7896C50.0358 17.4445 51.1754 43.6561 32.8164 46.0073C31.5 46.1759 31.1861 46.1532 30.0497 46.0073C11.677 43.6486 12.8446 17.4381 31.433 16.7896Z" fill="#2DA1D9" stroke="white"/>
<path d="M82.617 28.6667H66.017C64.2006 28.6962 64.197 31.4034 66.0171 31.4334L81.2337 31.4334V81.2334H10.6837V57.7167C10.6837 56.9521 10.0649 56.3334 9.30033 56.3334C8.53571 56.3334 7.91699 56.9521 7.91699 57.7167V82.6167C7.91699 83.3814 8.53571 84.0001 9.30033 84.0001H82.617C83.3816 84.0001 84.0003 83.3814 84.0003 82.6167V30.0501C84.0003 29.2855 83.3816 28.6667 82.617 28.6667Z" fill="#2DA1D9" stroke="white"/>
<path d="M61.8664 74.3167H56.3331V61.8667C56.3331 61.102 55.7144 60.4833 54.9498 60.4833C54.1851 60.4833 53.5664 61.102 53.5664 61.8667V74.3167H50.7998C48.9892 74.3442 48.975 77.0528 50.7998 77.0833L75.6998 77.0833C76.4644 77.0833 77.0831 76.4646 77.0831 75.7C77.0831 74.9354 76.4644 74.3167 75.6998 74.3167H72.9331V66.0167C72.9331 65.252 72.3144 64.6333 71.5498 64.6333C70.7851 64.6333 70.1664 65.252 70.1664 66.0167V74.3167H64.6331V54.95C64.6331 54.1854 64.0144 53.5667 63.2498 53.5667C62.4851 53.5667 61.8664 54.1854 61.8664 54.95V74.3167Z" fill="#2DA1D9" stroke="white"/>
<path d="M30.9735 65.0386L23.6515 72.3605L19.4421 68.1511C18.1617 66.8782 16.2098 68.822 17.486 70.1072L22.6735 75.2947C23.2138 75.8351 24.0892 75.8351 24.6296 75.2947L32.9296 66.9947C34.1997 65.7136 32.2613 63.7625 30.9735 65.0386Z" fill="#2DA1D9" stroke="white"/>
</svg>
