<svg width="104" height="72" viewBox="0 0 104 72" fill="none" xmlns="http://www.w3.org/2000/svg">
<path d="M31.836 9.01906C31.8358 8.83278 31.8723 8.6483 31.9435 8.47616C32.0146 8.30403 32.119 8.14763 32.2505 8.01591C32.3821 7.88419 32.5383 7.77973 32.7103 7.70851C32.8822 7.6373 33.0665 7.60071 33.2526 7.60086H57.5517C57.9274 7.60086 58.2877 7.75028 58.5534 8.01624C58.819 8.28221 58.9683 8.64293 58.9683 9.01906C58.9683 9.39519 58.819 9.75591 58.5534 10.0219C58.2877 10.2878 57.9274 10.4373 57.5517 10.4373H33.2526C32.8769 10.4373 32.5165 10.2878 32.2509 10.0219C31.9852 9.75591 31.836 9.39519 31.836 9.01906ZM66.1636 10.4373H78.316C78.6917 10.4373 79.052 10.2878 79.3177 10.0219C79.5833 9.75591 79.7326 9.39519 79.7326 9.01906C79.7326 8.64293 79.5833 8.28221 79.3177 8.01624C79.052 7.75028 78.6917 7.60086 78.316 7.60086H66.1647C65.789 7.60086 65.4287 7.75028 65.163 8.01624C64.8974 8.28221 64.7481 8.64293 64.7481 9.01906C64.7481 9.39519 64.8974 9.75591 65.163 10.0219C65.4287 10.2878 65.7879 10.4373 66.1636 10.4373ZM78.316 14.3311H54.0124C53.6367 14.3311 53.2763 14.4805 53.0107 14.7464C52.745 15.0124 52.5957 15.3731 52.5957 15.7493C52.5957 16.1254 52.745 16.4861 53.0107 16.7521C53.2763 17.018 53.6367 17.1675 54.0124 17.1675H78.316C78.6917 17.1675 79.052 17.018 79.3177 16.7521C79.5833 16.4861 79.7326 16.1254 79.7326 15.7493C79.7326 15.3731 79.5833 15.0124 79.3177 14.7464C79.052 14.4805 78.6917 14.3311 78.316 14.3311ZM33.2526 14.3311C32.8769 14.3311 32.5165 14.4805 32.2509 14.7464C31.9852 15.0124 31.836 15.3731 31.836 15.7493C31.836 16.1254 31.9852 16.4861 32.2509 16.7521C32.5165 17.018 32.8769 17.1675 33.2526 17.1675H45.4049C45.7807 17.1675 46.141 17.018 46.4067 16.7521C46.6723 16.4861 46.8216 16.1254 46.8216 15.7493C46.8216 15.3731 46.6723 15.0124 46.4067 14.7464C46.141 14.4805 45.7807 14.3311 45.4049 14.3311H33.2526ZM33.2526 23.8965H57.5517C57.9274 23.8965 58.2877 23.7471 58.5534 23.4811C58.819 23.2152 58.9683 22.8545 58.9683 22.4783C58.9683 22.1022 58.819 21.7415 58.5534 21.4755C58.2877 21.2095 57.9274 21.0601 57.5517 21.0601H33.2526C32.8769 21.0601 32.5165 21.2095 32.2509 21.4755C31.9852 21.7415 31.836 22.1022 31.836 22.4783C31.836 22.8545 31.9852 23.2152 32.2509 23.4811C32.5165 23.7471 32.8769 23.8965 33.2526 23.8965ZM78.316 21.0601H66.1647C65.789 21.0601 65.4287 21.2095 65.163 21.4755C64.8974 21.7415 64.7481 22.1022 64.7481 22.4783C64.7481 22.8545 64.8974 23.2152 65.163 23.4811C65.4287 23.7471 65.789 23.8965 66.1647 23.8965H78.316C78.6917 23.8965 79.052 23.7471 79.3177 23.4811C79.5833 23.2152 79.7326 22.8545 79.7326 22.4783C79.7326 22.1022 79.5833 21.7415 79.3177 21.4755C79.052 21.2095 78.6917 21.0601 78.316 21.0601ZM7.96979 18.7797C7.97219 16.5038 8.87635 14.3218 10.4839 12.7125C12.0914 11.1032 14.271 10.198 16.5443 10.1956C16.9201 10.1956 17.2804 10.345 17.546 10.611C17.8117 10.8769 17.961 11.2377 17.961 11.6138V17.3615H23.7023C24.078 17.3615 24.4383 17.5109 24.704 17.7768C24.9696 18.0428 25.1189 18.4035 25.1189 18.7797C25.1189 21.0563 24.2155 23.2397 22.6075 24.8495C20.9994 26.4594 18.8184 27.3637 16.5443 27.3637C14.2702 27.3637 12.0893 26.4594 10.4812 24.8495C8.87318 23.2397 7.96979 21.0563 7.96979 18.7797ZM10.803 18.7797C10.8024 20.1808 11.3129 21.5339 12.2387 22.5846C13.1645 23.6354 14.4418 24.3114 15.8305 24.4856C17.2192 24.6598 18.6237 24.3202 19.7798 23.5306C20.936 22.741 21.7642 21.5558 22.1088 20.1979H16.5443C16.1686 20.1979 15.8083 20.0485 15.5426 19.7825C15.277 19.5165 15.1277 19.1558 15.1277 18.7797V13.209C13.8918 13.5258 12.7962 14.2451 12.0133 15.2535C11.2304 16.262 10.8046 17.5024 10.803 18.7797ZM19.6008 14.3004V7.13456C19.6008 6.75843 19.7501 6.39771 20.0158 6.13174C20.2814 5.86578 20.6418 5.71636 21.0175 5.71636C23.2908 5.71876 25.4704 6.62393 27.0779 8.23323C28.6855 9.84254 29.5896 12.0245 29.592 14.3004C29.5922 14.4867 29.5556 14.6712 29.4845 14.8433C29.4133 15.0155 29.309 15.1719 29.1774 15.3036C29.0459 15.4353 28.8896 15.5398 28.7177 15.611C28.5457 15.6822 28.3615 15.7188 28.1754 15.7186H21.0175C20.6418 15.7186 20.2814 15.5692 20.0158 15.3032C19.7501 15.0373 19.6008 14.6766 19.6008 14.3004ZM22.4341 12.8822H26.582C26.3251 11.8818 25.8048 10.9687 25.0752 10.2382C24.3455 9.50782 23.4335 8.98686 22.4341 8.72975V12.8822ZM18.2488 32.3184V49.3027C18.2488 49.6788 18.0996 50.0396 17.8339 50.3055C17.5682 50.5715 17.2079 50.7209 16.8322 50.7209H10.2353C9.85955 50.7209 9.49922 50.5715 9.23355 50.3055C8.96789 50.0396 8.81863 49.6788 8.81863 49.3027V32.3184C8.81863 31.9422 8.96789 31.5815 9.23355 31.3155C9.49922 31.0496 9.85955 30.9002 10.2353 30.9002H16.8322C17.2079 30.9002 17.5682 31.0496 17.8339 31.3155C18.0996 31.5815 18.2488 31.9422 18.2488 32.3184ZM15.4156 33.732H11.653V47.88H15.4156V33.732ZM29.099 38.3258C29.4747 38.3258 29.8351 38.4753 30.1007 38.7412C30.3664 39.0072 30.5157 39.3679 30.5157 39.744V49.2982C30.5157 49.6743 30.3664 50.035 30.1007 50.301C29.8351 50.5669 29.4747 50.7164 29.099 50.7164H22.5021C22.1264 50.7164 21.7661 50.5669 21.5004 50.301C21.2347 50.035 21.0855 49.6743 21.0855 49.2982V39.7452C21.0853 39.5589 21.1219 39.3744 21.193 39.2023C21.2641 39.0302 21.3685 38.8737 21.5001 38.742C21.6316 38.6103 21.7879 38.5058 21.9598 38.4346C22.1317 38.3634 22.316 38.3268 22.5021 38.327L29.099 38.3258ZM27.6824 41.1622H23.9187V47.88H27.6824V41.1622ZM42.7814 28.909V49.3027C42.7814 49.6788 42.6321 50.0396 42.3664 50.3055C42.1008 50.5715 41.7404 50.7209 41.3647 50.7209H34.7723C34.3966 50.7209 34.0363 50.5715 33.7706 50.3055C33.505 50.0396 33.3557 49.6788 33.3557 49.3027V28.9135C33.3553 28.727 33.3916 28.5422 33.4626 28.3698C33.5336 28.1973 33.6378 28.0406 33.7694 27.9085C33.901 27.7765 34.0573 27.6717 34.2294 27.6002C34.4015 27.5287 34.586 27.4919 34.7723 27.4919H41.3693C41.5552 27.4924 41.7393 27.5295 41.911 27.6012C42.0826 27.6729 42.2384 27.7778 42.3696 27.9098C42.5007 28.0418 42.6046 28.1984 42.6752 28.3707C42.7459 28.5429 42.782 28.7274 42.7814 28.9135V28.909ZM39.9481 30.3283H36.1844V47.8845H39.9481V30.3283ZM55.0482 36.5026V49.3027C55.0482 49.6788 54.8989 50.0396 54.6333 50.3055C54.3676 50.5715 54.0073 50.7209 53.6316 50.7209H47.0346C46.6589 50.7209 46.2986 50.5715 46.0329 50.3055C45.7673 50.0396 45.618 49.6788 45.618 49.3027V36.506C45.618 36.1299 45.7673 35.7692 46.0329 35.5032C46.2986 35.2372 46.6589 35.0878 47.0346 35.0878H53.6316C54.0073 35.0878 54.3676 35.2372 54.6333 35.5032C54.8989 35.7692 55.0482 36.1299 55.0482 36.506V36.5026ZM52.215 37.9208H48.4513V47.8811H52.215V37.9208ZM82.9194 35.2864C84.3374 36.7058 85.3031 38.5143 85.6944 40.4832C86.0856 42.4521 85.8849 44.4929 85.1176 46.3476C84.3503 48.2023 83.0508 49.7875 81.3835 50.9028C79.7162 52.0181 77.756 52.6134 75.7508 52.6134C73.7455 52.6134 71.7853 52.0181 70.118 50.9028C68.4507 49.7875 67.1512 48.2023 66.3839 46.3476C65.6166 44.4929 65.4159 42.4521 65.8071 40.4832C66.1984 38.5143 67.1641 36.7058 68.5821 35.2864C70.4854 33.3866 73.0637 32.3201 75.7514 32.3207C78.4392 32.3214 81.017 33.3891 82.9194 35.2898V35.2864ZM80.9158 37.2923C79.8942 36.2693 78.5925 35.5726 77.1754 35.2903C75.7583 35.008 74.2893 35.1527 72.9544 35.7062C71.6194 36.2597 70.4784 37.197 69.6756 38.3998C68.8728 39.6025 68.4443 41.0165 68.4443 42.463C68.4443 43.9095 68.8728 45.3236 69.6756 46.5263C70.4784 47.729 71.6194 48.6664 72.9544 49.2198C74.2893 49.7733 75.7583 49.9181 77.1754 49.6357C78.5925 49.3534 79.8942 48.6567 80.9158 47.6338C82.2822 46.2612 83.0494 44.4025 83.0494 42.4647C83.0494 40.5269 82.2822 38.6682 80.9158 37.2957V37.2923ZM101.502 68.243C101.028 68.7193 100.464 69.0967 99.843 69.3534C99.2221 69.6101 98.5564 69.7409 97.8847 69.7384C97.2137 69.7411 96.5488 69.6106 95.9285 69.3545C95.3081 69.0984 94.7447 68.7218 94.2706 68.2464L87.9966 61.9666C87.9431 62.2988 87.7732 62.6011 87.5174 62.8194C87.2616 63.0376 86.9365 63.1576 86.6004 63.1579H56.1328L57.9653 68.1636H62.1982C62.5739 68.1636 62.9342 68.313 63.1999 68.579C63.4656 68.8449 63.6148 69.2057 63.6148 69.5818C63.6148 69.9579 63.4656 70.3186 63.1999 70.5846C62.9342 70.8506 62.5739 71 62.1982 71H26.8154C26.4397 71 26.0794 70.8506 25.8137 70.5846C25.5481 70.3186 25.3988 69.9579 25.3988 69.5818C25.3988 69.2057 25.5481 68.8449 25.8137 68.579C26.0794 68.313 26.4397 68.1636 26.8154 68.1636H31.0472L32.8797 63.1579H2.41549C2.03998 63.1576 1.67994 63.0081 1.41452 62.7421C1.1491 62.4762 1 62.1157 1 61.7397V2.4182C1 2.04207 1.14925 1.68135 1.41492 1.41538C1.68059 1.14942 2.04091 1 2.41662 1H86.5981C86.9738 1 87.3342 1.14942 87.5998 1.41538C87.8655 1.68135 88.0147 2.04207 88.0147 2.4182V32.2571C90.0827 34.7542 91.344 37.8213 91.6314 41.0522C91.9188 44.2831 91.2188 47.5252 89.624 50.3488C90.6253 50.5414 91.5456 51.0308 92.2658 51.7533L101.506 61.0034C102.463 61.9651 103.001 63.2677 103 64.6256C102.999 65.9835 102.461 67.2857 101.502 68.2464V68.243ZM85.0274 33.1806C83.193 31.3463 80.8566 30.0976 78.3135 29.5924C75.7703 29.0871 73.1347 29.348 70.7396 30.342C68.3446 31.336 66.2976 33.0185 64.8575 35.1768C63.4174 37.3352 62.6487 39.8725 62.6487 42.4681C62.6487 45.0637 63.4174 47.601 64.8575 49.7594C66.2976 51.9178 68.3446 53.6003 70.7396 54.5943C73.1347 55.5883 75.7703 55.8491 78.3135 55.3439C80.8566 54.8386 83.193 53.5899 85.0274 51.7556C87.485 49.2909 88.8653 45.9507 88.8653 42.4681C88.8653 38.9856 87.485 35.6453 85.0274 33.1806ZM3.83325 3.83867V52.5986H63.4221C60.957 49.5925 59.6724 45.7891 59.8094 41.9021C59.9464 38.0152 61.4956 34.3119 64.1662 31.4872C66.8369 28.6625 70.4454 26.9106 74.3147 26.5602C78.1839 26.2098 82.0479 27.285 85.1815 29.5841V3.83867H3.83325ZM53.1148 63.1579H35.8977L34.064 68.1636H54.9451L53.1148 63.1579ZM85.1804 59.1461L85.0274 58.993C84.3047 58.2729 83.8161 57.3511 83.6255 56.3483C80.9727 57.8521 77.9455 58.5649 74.9013 58.4024C71.8571 58.24 68.9228 57.2092 66.4447 55.4316H3.83325V60.3181H85.1815L85.1804 59.1461ZM99.4985 63.0036L90.2587 53.7592C89.8304 53.3314 89.25 53.091 88.6449 53.091C88.0398 53.091 87.4594 53.3314 87.0311 53.7592C86.6056 54.1891 86.3669 54.7697 86.3669 55.3749C86.3669 55.98 86.6056 56.5606 87.0311 56.9905L96.2708 66.2405C96.4828 66.4528 96.7344 66.6211 97.0113 66.736C97.2882 66.8509 97.5851 66.9101 97.8848 66.9101C98.1846 66.9102 98.4814 66.8511 98.7584 66.7363C99.0354 66.6215 99.287 66.4533 99.499 66.2411C99.711 66.0289 99.8792 65.777 99.994 65.4998C100.109 65.2226 100.168 64.9254 100.168 64.6253C100.168 64.3252 100.109 64.028 99.9943 63.7508C99.8796 63.4735 99.7115 63.2215 99.4996 63.0093L99.4985 63.0036Z" fill="#2DA1D9" stroke="white"/>
</svg>
