<svg width="76" height="85" viewBox="0 0 76 85" fill="none" xmlns="http://www.w3.org/2000/svg">
<path d="M64.1652 11.8646C57.1764 4.85877 47.8848 1 38.0014 1C28.1179 1 18.8263 4.85877 11.8376 11.8655C4.84884 18.8723 1 28.1879 1 38.0968C1 38.8363 1.59738 39.4352 2.33488 39.4352H15.6302C16.3677 39.4352 16.9651 38.8353 16.9651 38.0968C16.9651 26.4679 26.4014 17.0072 38.0005 17.0072C49.5995 17.0072 59.0349 26.4679 59.0349 38.0968C59.0349 38.8363 59.6323 39.4352 60.3698 39.4352H73.6651C74.4026 39.4352 75 38.8353 75 38.0968C75.0028 28.187 71.1539 18.8714 64.1652 11.8646ZM36.6665 14.3684C33.3229 14.5551 30.1617 15.4406 27.326 16.8806L22.0077 7.6454C26.4162 5.30888 31.3906 3.90863 36.6656 3.7053L36.6665 14.3684ZM39.3363 3.7053C44.6112 3.90863 49.5857 5.30888 53.9941 7.6454L48.6758 16.8806C45.8401 15.4406 42.6799 14.5551 39.3353 14.3684L39.3363 3.7053ZM14.3331 36.7576H3.69649C3.8993 31.4681 5.30056 26.4827 7.63106 22.0629L16.8397 27.393C15.4034 30.2361 14.5193 33.4044 14.3331 36.7576ZM18.1783 25.0759L8.96963 19.7458C11.7039 15.4128 15.3758 11.7315 19.6984 8.99019L25.0158 18.2235C22.2972 20.0147 19.9658 22.3503 18.1783 25.0759ZM50.9879 18.2226L56.3053 8.98926C60.627 11.7306 64.2988 15.4119 67.034 19.7448L57.8254 25.075C56.037 22.3503 53.7056 20.0147 50.9879 18.2226ZM61.6697 36.7576C61.4825 33.4053 60.5994 30.2361 59.1631 27.393L68.3717 22.0629C70.7022 26.4827 72.1035 31.469 72.3063 36.7576H61.6697ZM50.0531 26.0131C49.5322 25.49 48.6859 25.49 48.1651 26.0131L41.5054 32.689C40.496 32.0291 39.2929 31.6446 38.0014 31.6446C34.4531 31.6446 31.5667 34.5385 31.5667 38.0959C31.5667 41.6534 34.4531 44.5472 38.0014 44.5472C41.5497 44.5472 44.4361 41.6534 44.4361 38.0959C44.4361 36.801 44.0517 35.594 43.3944 34.5828L50.054 27.906C50.5749 27.3838 50.5749 26.5363 50.0531 26.0131ZM38.0014 41.8697C35.9262 41.8697 34.2374 40.1764 34.2374 38.0959C34.2374 36.0154 35.9262 34.3222 38.0014 34.3222C40.0765 34.3222 41.7654 36.0154 41.7654 38.0959C41.7654 40.1773 40.0765 41.8697 38.0014 41.8697ZM31.5602 45.538L44.7071 51.2065L54.1453 42.598L52.4094 42.6044H52.4048C51.6691 42.6044 51.0727 42.0083 51.0699 41.2707C51.0671 40.5313 51.6627 39.9296 52.4002 39.9269L57.6069 39.9075H57.6116C58.0098 39.9075 58.3878 40.0858 58.6413 40.3945C58.8957 40.7042 58.999 41.1118 58.9206 41.5055L57.9112 46.6268C57.7858 47.2645 57.2271 47.7063 56.603 47.7063C56.5173 47.7063 56.4297 47.698 56.3431 47.6805C55.6194 47.5372 55.1492 46.8329 55.2921 46.1074L55.517 44.9659L45.8687 53.7667C45.4815 54.1197 44.9238 54.2131 44.4425 54.0061L31.2201 48.3062L17.9035 58.4443C17.662 58.6283 17.3781 58.717 17.0969 58.717C16.694 58.717 16.2949 58.5349 16.0321 58.1874C15.5859 57.5986 15.7012 56.7585 16.2884 56.3111L30.2253 45.7016C30.6088 45.4105 31.1186 45.3476 31.5602 45.538Z" fill="#2DA1D9" stroke="white"/>
<path d="M14 65L14 83" stroke="#2DA1D9" stroke-width="3" stroke-linecap="round"/>
<path d="M30 59L30 83" stroke="#2DA1D9" stroke-width="3" stroke-linecap="round"/>
<path d="M46 59L46 83" stroke="#2DA1D9" stroke-width="3" stroke-linecap="round"/>
<path d="M62 50L62 83" stroke="#2DA1D9" stroke-width="3" stroke-linecap="round"/>
</svg>
