<svg width="88" height="85" viewBox="0 0 88 85" fill="none" xmlns="http://www.w3.org/2000/svg">
<path d="M81.6997 81.8521C83.4994 81.8521 84.8183 80.4242 84.8183 78.7644C84.8183 76.9826 83.4994 75.6768 81.6997 75.6768H55.5928C55.1121 77.8125 53.2015 79.3502 51.0444 79.3502H36.9186C34.7615 79.3502 32.8509 77.8125 32.3702 75.6768H6.26329C4.46367 75.6768 3.03383 76.9826 3.03383 78.7644C3.03383 80.4242 4.47599 81.8521 6.26329 81.8521H81.6997ZM25.7757 20.2092C24.4568 20.2092 24.4568 18.1956 25.7757 18.1956H35.9571C37.3993 18.1956 37.3993 20.2092 35.9571 20.2092H25.7757ZM25.7757 25.4204C24.4568 25.4204 24.4568 23.4067 25.7757 23.4067H35.9571C37.3993 23.4067 37.3993 25.4204 35.9571 25.4204H25.7757ZM25.7757 30.7536C24.4568 30.7536 24.4568 28.6178 25.7757 28.6178H35.9571C37.3993 28.6178 37.3993 30.7536 35.9571 30.7536H25.7757ZM25.7757 35.9769C24.4568 35.9769 24.4568 33.8412 25.7757 33.8412H62.0517C63.4939 33.8412 63.4939 35.9769 62.0517 35.9769H25.7757ZM25.7757 41.1881C24.4568 41.1881 24.4568 39.1744 25.7757 39.1744H62.0517C63.4939 39.1744 63.4939 41.1881 62.0517 41.1881H25.7757ZM25.7757 46.6433C24.4568 46.6433 24.4568 44.6296 25.7757 44.6296H62.0517C63.4939 44.6296 63.4939 46.6433 62.0517 46.6433H25.7757ZM22.0655 12.3864H27.4521C28.8942 12.3864 30.0899 11.2026 30.0899 9.77474V4.56359L22.0655 12.3864ZM32.247 3.13572V9.77474C32.247 12.3864 30.0899 14.5221 27.4521 14.5221H20.6233V48.901C20.6233 50.3289 21.819 51.5127 23.2611 51.5127H64.6895C66.1317 51.5127 67.3274 50.3289 67.3274 48.901V5.74739C67.3274 4.31951 66.1317 3.13572 64.6895 3.13572H32.247ZM18.836 12.7403L30.3364 1.35392C30.5706 1.12204 30.8048 1 31.1746 1H64.7019C67.3397 1 69.4968 3.13572 69.4968 5.74739V19.8553H76.8062C78.9633 19.8553 80.7629 21.6371 80.7629 23.7728V63.9609C80.7629 64.7908 80.5287 65.4986 80.048 66.2186L86.0386 75.8233C86.6425 76.6531 87 77.7149 87 78.7888C87 81.6324 84.6087 84 81.7367 84H6.26329C3.39129 84 1 81.6324 1 78.7888C1 77.8369 1.2342 77.007 1.60398 76.1772L7.95198 66.2186C7.47126 65.5108 7.23706 64.7908 7.23706 63.9609V23.7606C7.23706 21.6249 9.03669 19.8431 11.1938 19.8431H18.5032V13.4482C18.4786 13.0943 18.6018 12.8624 18.836 12.7403ZM69.4844 21.9788V48.8888C69.4844 51.5005 67.3274 53.6362 64.6895 53.6362H23.2611C20.6233 53.6362 18.4662 51.5005 18.4662 48.8888V21.9788H11.1691C10.2077 21.9788 9.3695 22.6867 9.3695 23.7606V58.7375H78.5812V23.7606C78.5812 22.6989 77.743 21.9788 76.7816 21.9788H69.4844ZM5.78257 73.5533C5.90583 73.5533 6.01677 73.5533 6.26329 73.5533H33.3193C33.9233 73.5533 34.3917 74.0293 34.3917 74.6151C34.3917 76.0429 35.3532 77.2267 36.9063 77.2267H51.0321C52.4743 77.2267 53.5466 76.0429 53.5466 74.6151C53.5466 74.0171 54.0274 73.5533 54.619 73.5533H81.6997C81.823 73.5533 82.0572 73.5533 82.1805 73.5533L78.347 67.5123C77.8663 67.7442 77.2746 67.8662 76.7939 67.8662H11.1691C10.5651 67.8662 10.0967 67.7442 9.61602 67.5123L5.78257 73.5533ZM78.5812 60.8733H9.38183V63.9609C9.38183 64.9128 10.0967 65.7427 11.1815 65.7427H76.7939C77.7553 65.7427 78.5935 64.9128 78.5935 63.9609V60.8733H78.5812ZM43.5008 64.3026C42.0586 64.3026 42.0586 62.1669 43.5008 62.1669H45.1772C46.4961 62.1669 46.4961 64.3026 45.1772 64.3026H43.5008ZM19.44 71.6617C17.9978 71.6617 17.9978 69.648 19.44 69.648H22.1888C23.6309 69.648 23.6309 71.6617 22.1888 71.6617H19.44ZM27.0946 71.6617C25.7757 71.6617 25.7757 69.648 27.0946 69.648H29.9666C31.2855 69.648 31.2855 71.6617 29.9666 71.6617H27.0946ZM34.8848 71.6617C33.4426 71.6617 33.4426 69.648 34.8848 69.648H37.6335C39.0757 69.648 39.0757 71.6617 37.6335 71.6617H34.8848ZM42.5393 71.6617C41.2204 71.6617 41.2204 69.648 42.5393 69.648H45.4114C46.7303 69.648 46.7303 71.6617 45.4114 71.6617H42.5393ZM50.3295 71.6617C48.8873 71.6617 48.8873 69.648 50.3295 69.648H53.0783C54.5204 69.648 54.5204 71.6617 53.0783 71.6617H50.3295ZM57.9964 71.6617C56.5542 71.6617 56.5542 69.648 57.9964 69.648H60.8684C62.1873 69.648 62.1873 71.6617 60.8684 71.6617H57.9964ZM65.7743 71.6617C64.3321 71.6617 64.3321 69.648 65.7743 69.648H68.523C69.9652 69.648 69.9652 71.6617 68.523 71.6617H65.7743ZM73.4412 71.6617C71.999 71.6617 71.999 69.648 73.4412 69.648H76.3132C77.6321 69.648 77.6321 71.6617 76.3132 71.6617H73.4412ZM11.6498 71.6617C10.3309 71.6617 10.3309 69.648 11.6498 69.648H14.5219C15.8408 69.648 15.8408 71.6617 14.5219 71.6617H11.6498Z" fill="#2DA1D9" stroke="white" stroke-width="0.5"/>
</svg>
