<svg width="85" height="85" viewBox="0 0 85 85" fill="none" xmlns="http://www.w3.org/2000/svg">
<path d="M83.5984 8.82636C83.5984 8.53717 83.5075 8.25529 83.3386 8.02054C83.1697 7.78578 82.9314 7.61001 82.6572 7.51805L63.4315 1.07038C63.1464 0.976541 62.8388 0.976541 62.5538 1.07038L44.8889 6.99501H18.8456C17.2243 6.9972 15.6699 7.64236 14.5236 8.78898C13.3772 9.9356 12.7324 11.4901 12.7306 13.1115V20.8095H13.2053C11.0067 20.9668 8.89233 21.7195 7.08891 22.987C5.2855 24.2544 3.86104 25.9888 2.96824 28.0041C2.07545 30.0195 1.74798 32.2398 2.02096 34.4271C2.29394 36.6144 3.15706 38.6861 4.51779 40.4202V58.9973C4.51788 59.242 4.58301 59.4822 4.70651 59.6934C4.83 59.9046 5.00742 60.0792 5.22059 60.1993C5.43376 60.3193 5.67501 60.3806 5.91963 60.3767C6.16426 60.3728 6.40346 60.304 6.61273 60.1773L12.7306 56.4759V67.8781H2.38007C2.01405 67.8781 1.66303 68.0235 1.40421 68.2823C1.1454 68.5411 1 68.8921 1 69.2581V75.2324C1.00256 77.557 1.9271 79.7855 3.57079 81.4292C5.21447 83.0729 7.44305 83.9974 9.76757 84H62.9981C63.0572 83.992 63.1157 83.9804 63.1734 83.9655C65.0218 83.7899 66.7385 82.932 67.9887 81.5593C69.239 80.1866 69.9331 78.3975 69.9357 76.5407V58.7544H79.5396C79.9056 58.7544 80.2567 58.609 80.5155 58.3502C80.7743 58.0914 80.9197 57.7404 80.9197 57.3744V28.6248H80.8921C82.6828 23.8442 83.6009 18.7809 83.6025 13.6759L83.5984 8.82636ZM45.147 9.82L62.9981 3.83465L80.8383 9.82V13.6759C80.8352 20.0864 79.2911 26.4023 76.3362 32.0912C73.3812 37.78 69.1021 42.6752 63.8593 46.3642L62.9981 46.9714L62.1315 46.3628C56.8897 42.6735 52.6115 37.7783 49.6574 32.0897C46.7032 26.4011 45.1596 20.0858 45.1566 13.6759L45.147 9.82ZM14.1106 23.5241C15.9735 23.5241 17.7946 24.0765 19.3435 25.1115C20.8925 26.1464 22.0997 27.6175 22.8126 29.3386C23.5255 31.0596 23.712 32.9535 23.3486 34.7806C22.9852 36.6077 22.0881 38.286 20.7708 39.6032C19.4536 40.9205 17.7753 41.8176 15.9482 42.181C14.1211 42.5444 12.2272 42.3579 10.5062 41.645C8.78507 40.9321 7.31403 39.7249 6.27906 38.1759C5.24409 36.627 4.69168 34.8059 4.69168 32.943C4.69424 30.4458 5.68741 28.0515 7.45325 26.2856C9.2191 24.5198 11.6134 23.5266 14.1106 23.5241ZM7.27793 43.0189C9.29247 44.3895 11.6727 45.1224 14.1093 45.1224C16.5458 45.1224 18.926 44.3895 20.9406 43.0189V56.5436L14.8241 52.8505C14.6087 52.7202 14.3617 52.6513 14.1099 52.6513C13.8582 52.6513 13.6112 52.7202 13.3958 52.8505L7.27793 56.5491V43.0189ZM54.6142 81.2468H9.76343C8.17072 81.2449 6.64376 80.6114 5.51755 79.4852C4.39133 78.359 3.75782 76.832 3.75599 75.2393V70.6382H55.8384V76.8485C55.8372 78.44 56.3692 79.9861 57.3495 81.2399L54.6142 81.2468ZM67.1728 76.5476C67.1696 77.7462 66.7079 78.8981 65.8823 79.7671C65.0568 80.636 63.93 81.156 62.7332 81.2206C61.6166 81.1579 60.5662 80.6712 59.7966 79.8598C59.0271 79.0484 58.5965 77.9737 58.593 76.8554V69.265C58.593 68.899 58.4476 68.548 58.1888 68.2892C57.9299 68.0304 57.5789 67.885 57.2129 67.885H15.4907V56.4759L21.6085 60.1773C21.8234 60.3085 22.0703 60.3778 22.322 60.3774C22.6881 60.3774 23.0391 60.232 23.2979 59.9732C23.5567 59.7144 23.7021 59.3633 23.7021 58.9973V40.4202C25.0628 38.6861 25.926 36.6144 26.1989 34.4271C26.4719 32.2398 26.1445 30.0195 25.2517 28.0041C24.3589 25.9888 22.9344 24.2544 21.131 22.987C19.3276 21.7195 17.2132 20.9668 15.0146 20.8095H15.4907V13.1115C15.4918 12.2219 15.8456 11.369 16.4745 10.7399C17.1034 10.1107 17.9561 9.7566 18.8456 9.75514H42.3868V13.6759C42.3906 20.529 44.0415 27.2808 47.2006 33.3623C50.3596 39.4438 54.9342 44.6769 60.5389 48.6206L62.1949 49.7881C62.4273 49.9515 62.7044 50.0391 62.9885 50.0391C63.2725 50.0391 63.5496 49.9515 63.782 49.7881L65.4381 48.6206C66.0288 48.2066 66.5987 47.7705 67.1632 47.3289V76.5407L67.1728 76.5476ZM78.1568 56.0012H69.9316V44.9717C73.2042 41.9316 75.9793 38.3965 78.1554 34.4956L78.1568 56.0012Z" fill="#2DA1D9" stroke="white"/>
<path d="M60.9644 34.6157C61.6005 34.6176 62.2306 34.4933 62.8183 34.25C63.4061 34.0067 63.9397 33.6493 64.3883 33.1984L77.4065 20.1788C78.3137 19.2705 78.8233 18.0393 78.8233 16.7555C78.8233 15.4718 78.3137 14.2406 77.4065 13.3323C76.4844 12.4515 75.2584 11.96 73.9832 11.96C72.7081 11.96 71.482 12.4515 70.56 13.3323L60.9644 22.9265L57.125 19.0872C56.6751 18.6375 56.141 18.2809 55.5533 18.0377C54.9656 17.7944 54.3357 17.6693 53.6996 17.6695C53.0635 17.6697 52.4337 17.7952 51.8461 18.0388C51.2586 18.2824 50.7247 18.6393 50.2751 19.0892C49.8254 19.5391 49.4688 20.0732 49.2256 20.6609C48.9823 21.2487 48.8572 21.8786 48.8574 22.5146C48.8576 23.1507 48.9831 23.7805 49.2267 24.3681C49.4703 24.9557 49.8272 25.4896 50.2771 25.9392L57.5404 33.2025C57.9895 33.6525 58.5233 34.0092 59.111 34.2517C59.6987 34.4943 60.3286 34.618 60.9644 34.6157ZM52.2341 21.0386C52.6255 20.6497 53.1548 20.4315 53.7066 20.4315C54.2583 20.4315 54.7877 20.6497 55.1791 21.0386L59.9942 25.8536C60.253 26.1124 60.6039 26.2577 60.9699 26.2577C61.3358 26.2577 61.6868 26.1124 61.9456 25.8536L72.5183 15.2837C72.9145 14.9051 73.4414 14.6938 73.9894 14.6938C74.5375 14.6938 75.0644 14.9051 75.4606 15.2837C75.8504 15.6744 76.0693 16.2037 76.0693 16.7555C76.0693 17.3074 75.8504 17.8367 75.4606 18.2274L62.4424 31.2469C62.0451 31.6245 61.518 31.835 60.9699 31.835C60.4218 31.835 59.8947 31.6245 59.4974 31.2469L52.2341 23.9836C51.8442 23.5927 51.6253 23.0632 51.6253 22.5111C51.6253 21.959 51.8442 21.4295 52.2341 21.0386Z" fill="#2DA1D9" stroke="white"/>
</svg>
