<svg width="93" height="94" viewBox="0 0 93 94" fill="none" xmlns="http://www.w3.org/2000/svg">
<mask id="path-1-inside-1_803_16" fill="white">
<path d="M46.5015 34.6547C39.7664 34.6547 34.2874 40.1926 34.2874 47C34.2874 53.8074 39.7664 59.3453 46.5015 59.3453C53.2366 59.3453 58.7156 53.8064 58.7156 47C58.7156 40.1936 53.2366 34.6547 46.5015 34.6547ZM46.5015 56.3131C41.4204 56.3131 37.2874 52.1346 37.2874 47C37.2874 41.8654 41.4204 37.6869 46.5015 37.6869C51.5826 37.6869 55.7156 41.8654 55.7156 47C55.7156 52.1346 51.5826 56.3131 46.5015 56.3131ZM86.4999 40.4301C83.4329 40.4301 80.8619 42.5911 80.1819 45.4839H72.9998V42.7872C72.9998 41.9503 72.3288 41.2711 71.4998 41.2711H68.1077C67.5927 39.2839 66.8127 37.3888 65.7787 35.6098L68.1837 33.181C68.4647 32.897 68.6227 32.5119 68.6227 32.1086C68.6227 31.7073 68.4647 31.3212 68.1837 31.0362L66.2987 29.1319L71.3758 23.9993C72.3918 24.6351 73.5608 24.9808 74.7838 24.9808C76.5198 24.9808 78.1528 24.2975 79.3799 23.0563C80.6079 21.8151 81.2829 20.1665 81.2829 18.4109C81.2829 16.6552 80.6069 15.0066 79.3799 13.7654C78.1518 12.5242 76.5198 11.841 74.7828 11.841C73.0468 11.841 71.4148 12.5242 70.1868 13.7654C68.9587 15.0066 68.2827 16.6552 68.2827 18.4109C68.2827 19.648 68.6247 20.8296 69.2537 21.8555L64.1757 26.9881L62.2877 25.0808C61.7257 24.5128 60.7287 24.5128 60.1656 25.0808L57.7626 27.5117C56.0016 26.4666 54.1276 25.6802 52.1666 25.1617V21.7312C52.1666 20.8943 51.4956 20.2151 50.6665 20.2151H47.9995V12.9558C50.8615 12.2685 52.9996 9.66987 52.9996 6.56989C52.9996 2.94735 50.0835 0 46.4995 0C42.9155 0 39.9994 2.94735 39.9994 6.56989C39.9994 9.66987 42.1375 12.2685 44.9995 12.9558V20.2151H42.3355C41.5064 20.2151 40.8354 20.8943 40.8354 21.7312V25.1627C38.8744 25.6812 36.9984 26.4676 35.2354 27.5127L32.8314 25.0818C32.5504 24.7978 32.1683 24.6381 31.7703 24.6381C31.3723 24.6381 30.9913 24.7978 30.7093 25.0818L28.8213 26.9901L23.7433 21.8575C24.3713 20.8316 24.7143 19.65 24.7143 18.4129C24.7143 16.6582 24.0383 15.0087 22.8102 13.7675C21.5822 12.5252 19.9502 11.843 18.2142 11.843C16.4782 11.843 14.8452 12.5273 13.6181 13.7675C12.3911 15.0077 11.7141 16.6572 11.7141 18.4129C11.7141 20.1686 12.3901 21.8171 13.6171 23.0583C14.8452 24.3005 16.4772 24.9828 18.2132 24.9828C19.4372 24.9828 20.6062 24.6371 21.6212 24.0013L26.6993 29.1339L24.8133 31.0402C24.5323 31.3242 24.3743 31.7103 24.3743 32.1126C24.3743 32.5149 24.5323 32.9 24.8133 33.185L27.2193 35.6149C26.1843 37.3989 25.4063 39.294 24.8933 41.2731H21.4992C21.1012 41.2731 20.7202 41.4328 20.4382 41.7168C20.1562 42.0008 19.9992 42.3869 19.9992 42.7892L20.0002 45.4859H12.8181C12.1381 42.5931 9.5671 40.4321 6.50007 40.4321C2.91603 40.4321 0 43.3795 0 47.002C0 50.6246 2.91603 53.5719 6.50007 53.5719C9.5671 53.5719 12.1381 51.4109 12.8181 48.5182H20.0012L20.0022 51.2108C20.0022 52.0487 20.6742 52.7269 21.5022 52.7269H24.8963C25.4083 54.71 26.1873 56.6062 27.2223 58.3861L24.8153 60.819C24.5343 61.103 24.3763 61.4891 24.3763 61.8914C24.3763 62.2937 24.5343 62.6788 24.8153 62.9638L26.7023 64.8701L21.6242 70.0027C20.6092 69.367 19.4392 69.0213 18.2162 69.0213C16.4802 69.0213 14.8472 69.7056 13.6201 70.9457C12.3931 72.1859 11.7161 73.8355 11.7161 75.5912C11.7161 77.3468 12.3921 78.9954 13.6191 80.2366C14.8472 81.4778 16.4792 82.1611 18.2162 82.1611C19.9522 82.1611 21.5842 81.4778 22.8122 80.2366C24.0403 78.9954 24.7163 77.3468 24.7163 75.5912C24.7163 74.354 24.3743 73.1724 23.7453 72.1465L28.8233 67.0129L30.7083 68.9172C31.2943 69.5095 32.2433 69.5095 32.8294 68.9172L35.2334 66.4883C36.9974 67.5344 38.8744 68.3218 40.8354 68.8403V72.2688C40.8354 73.1057 41.5064 73.7849 42.3355 73.7849H44.9995V81.0442C42.1375 81.7315 39.9994 84.3301 39.9994 87.4301C39.9994 91.0526 42.9155 94 46.4995 94C50.0835 94 52.9996 91.0526 52.9996 87.4301C52.9996 84.3301 50.8615 81.7315 47.9995 81.0442V73.7849H50.6675C51.4966 73.7849 52.1676 73.1057 52.1676 72.2688V68.8373C54.1296 68.3188 56.0056 67.5314 57.7686 66.4853L60.1736 68.9161C60.7357 69.4842 61.7327 69.4842 62.2957 68.9161L64.1787 67.0119L69.2547 72.1435C68.6267 73.1694 68.2837 74.351 68.2837 75.5881C68.2837 77.3428 68.9597 78.9923 70.1878 80.2335C71.4158 81.4758 73.0478 82.158 74.7838 82.158C76.5198 82.158 78.1528 81.4737 79.3799 80.2335C80.6069 78.9934 81.2839 77.3438 81.2839 75.5881C81.2839 73.8325 80.6079 72.1839 79.3809 70.9427C78.1528 69.7015 76.5208 69.0182 74.7838 69.0182C73.5598 69.0182 72.3908 69.3639 71.3758 69.9997L66.2997 64.8681L68.1867 62.9608C68.7717 62.3685 68.7717 61.4093 68.1867 60.817L65.7837 58.3881C66.8187 56.6042 67.5977 54.707 68.1107 52.7249H71.4998C72.3288 52.7249 72.9998 52.0457 72.9998 51.2088V48.5161H80.1819C80.8619 51.4089 83.4329 53.5699 86.4999 53.5699C90.084 53.5699 93 50.6225 93 47C93 43.3775 90.084 40.4301 86.4999 40.4301ZM72.3088 15.9103C72.9708 15.2421 73.8498 14.8742 74.7838 14.8742C75.7188 14.8742 76.5978 15.2421 77.2588 15.9103C77.9198 16.5784 78.2838 17.4668 78.2838 18.4119C78.2838 19.3569 77.9198 20.2444 77.2588 20.9135C75.9378 22.2497 73.6328 22.2497 72.3088 20.9135C71.6478 20.2454 71.2838 19.3569 71.2838 18.4119C71.2838 17.4668 71.6478 16.5784 72.3088 15.9103ZM42.9995 6.56989C42.9995 4.61914 44.5695 3.03226 46.4995 3.03226C48.4295 3.03226 49.9995 4.61914 49.9995 6.56989C49.9995 8.52065 48.4295 10.1075 46.4995 10.1075C44.5695 10.1075 42.9995 8.52065 42.9995 6.56989ZM15.7402 20.9125C15.0782 20.2444 14.7152 19.3559 14.7152 18.4109C14.7152 17.4658 15.0792 16.5784 15.7402 15.9092C16.4012 15.2411 17.2802 14.8732 18.2152 14.8732C19.1502 14.8732 20.0282 15.2411 20.6902 15.9092C21.3512 16.5774 21.7152 17.4658 21.7152 18.4109C21.7152 19.3559 21.3512 20.2434 20.6902 20.9125C19.3662 22.2497 17.0612 22.2497 15.7402 20.9125ZM6.49907 50.5376C4.56905 50.5376 2.99903 48.9508 2.99903 47C2.99903 45.0492 4.56905 43.4624 6.49907 43.4624C8.42909 43.4624 9.99911 45.0492 9.99911 47C9.99911 48.9508 8.42909 50.5376 6.49907 50.5376ZM20.6902 78.0897C19.3662 79.426 17.0622 79.4249 15.7402 78.0897C15.0792 77.4216 14.7152 76.5332 14.7152 75.5881C14.7152 74.6431 15.0792 73.7556 15.7402 73.0865C16.4012 72.4184 17.2802 72.0505 18.2152 72.0505C19.1502 72.0505 20.0282 72.4184 20.6902 73.0865C21.3512 73.7546 21.7152 74.6431 21.7152 75.5881C21.7152 76.5332 21.3512 77.4216 20.6902 78.0897ZM49.9995 87.4301C49.9995 89.3809 48.4295 90.9677 46.4995 90.9677C44.5695 90.9677 42.9995 89.3809 42.9995 87.4301C42.9995 85.4794 44.5695 83.8925 46.4995 83.8925C48.4295 83.8925 49.9995 85.4794 49.9995 87.4301ZM77.2588 73.0875C77.9198 73.7556 78.2838 74.6441 78.2838 75.5891C78.2838 76.5342 77.9198 77.4216 77.2588 78.0908C75.9378 79.426 73.6328 79.428 72.3088 78.0908C71.6478 77.4226 71.2838 76.5342 71.2838 75.5891C71.2838 74.6441 71.6478 73.7566 72.3088 73.0875C72.9708 72.4194 73.8498 72.0515 74.7838 72.0515C75.7188 72.0505 76.5978 72.4184 77.2588 73.0875ZM69.9997 49.6926H66.9177C66.2047 49.6926 65.5887 50.2011 65.4477 50.9076C64.9577 53.3516 64.0087 55.6611 62.6277 57.7706C62.2337 58.372 62.3137 59.1705 62.8177 59.6799L65.0037 61.8894L63.1197 63.7947L63.1167 63.7967L63.1147 63.7997L61.2337 65.702L59.0456 63.4904C58.5426 62.981 57.7526 62.9002 57.1566 63.2994C55.0736 64.6942 52.7896 65.6524 50.3685 66.1487C49.6695 66.2922 49.1665 66.9128 49.1665 67.6345V70.7527H43.8345V67.6335C43.8345 66.9118 43.3315 66.2912 42.6325 66.1477C40.2144 65.6524 37.9294 64.6932 35.8414 63.2974C35.2454 62.9002 34.4564 62.98 33.9534 63.4894L31.7683 65.6989L27.9963 61.8884L30.1853 59.6758C30.6903 59.1654 30.7693 58.3669 30.3743 57.7655C28.9943 55.6611 28.0463 53.3546 27.5573 50.9086C27.4163 50.2011 26.8013 49.6926 26.0873 49.6926H23.0012L22.9992 44.3033H26.0863C26.7993 44.3033 27.4153 43.7949 27.5563 43.0884C28.0453 40.6494 28.9933 38.3409 30.3743 36.2284C30.7673 35.627 30.6873 34.8295 30.1833 34.3201L27.9963 32.1106L31.7683 28.298L33.9544 30.5086C34.4594 31.018 35.2474 31.0988 35.8434 30.7006C37.9284 29.3058 40.2124 28.3476 42.6325 27.8523C43.3315 27.7088 43.8345 27.0882 43.8345 26.3665V23.2473H49.1665V26.3665C49.1665 27.0882 49.6685 27.7088 50.3685 27.8523C52.7876 28.3486 55.0706 29.3058 57.1536 30.7006C57.7496 31.0988 58.5386 31.019 59.0426 30.5086L61.2287 28.297L65.0007 32.1086L62.8137 34.3181C62.3087 34.8275 62.2297 35.627 62.6247 36.2284C64.0027 38.3288 64.9527 40.6373 65.4477 43.0904C65.5907 43.7959 66.2047 44.3033 66.9177 44.3033H69.9997V49.6926ZM86.4999 50.5376C84.5699 50.5376 82.9999 48.9508 82.9999 47C82.9999 45.0492 84.5699 43.4624 86.4999 43.4624C88.4299 43.4624 90 45.0492 90 47C90 48.9508 88.4299 50.5376 86.4999 50.5376ZM60.0796 80.1426C59.8996 80.2234 59.6996 80.2528 59.5096 80.2528C58.9196 80.2528 58.3596 79.9091 58.1196 79.3229C57.8096 78.5446 58.1696 77.6652 58.9396 77.3418C59.6996 77.0193 60.5797 77.3923 60.8897 78.1615C61.2097 78.9398 60.8497 79.8191 60.0796 80.1426ZM58.1696 75.4729C57.9796 75.5538 57.7896 75.5942 57.5996 75.5942C57.0096 75.5942 56.4496 75.2394 56.2096 74.6532C55.8896 73.885 56.2496 72.9956 57.0196 72.6721C57.7896 72.3497 58.6596 72.7237 58.9796 73.4918C59.2996 74.2691 58.9396 75.1495 58.1696 75.4729ZM62.8097 82.8312C63.1197 83.5993 62.7597 84.4888 61.9997 84.8123C61.8097 84.8931 61.6097 84.9224 61.4197 84.9224C60.8297 84.9224 60.2696 84.5788 60.0396 83.9925C59.7196 83.2143 60.0796 82.3349 60.8497 82.0115C61.6097 81.688 62.4897 82.0529 62.8097 82.8312ZM34.2194 17.0312C34.9794 16.7088 35.8594 17.0817 36.1794 17.8509C36.4994 18.6292 36.1294 19.5176 35.3694 19.832C35.1794 19.9128 34.9894 19.9533 34.7994 19.9533C34.2094 19.9533 33.6494 19.5985 33.4094 19.0123C33.0894 18.2441 33.4494 17.3546 34.2194 17.0312ZM32.3093 12.3605C33.0694 12.0472 33.9494 12.412 34.2694 13.1802C34.5794 13.9585 34.2194 14.8469 33.4494 15.1714C33.2694 15.2422 33.0694 15.2826 32.8794 15.2826C32.2893 15.2826 31.7293 14.9278 31.4893 14.3416C31.1793 13.5744 31.5393 12.6849 32.3093 12.3605ZM29.5793 9.67189C29.2593 8.90372 29.6293 8.01426 30.3893 7.69082C31.1593 7.37748 32.0393 7.74237 32.3493 8.51963C32.6693 9.28781 32.3093 10.1773 31.5393 10.5007C31.3493 10.5725 31.1593 10.6129 30.9693 10.6129C30.3793 10.6129 29.8193 10.2581 29.5793 9.67189ZM11.0491 63.4854C10.8591 63.5662 10.6691 63.5966 10.4791 63.5966C9.88911 63.5966 9.3291 63.2418 9.0891 62.6566C8.76909 61.8874 9.1391 60.9979 9.89911 60.6856C10.6691 60.3622 11.5391 60.726 11.8591 61.5043C12.1791 62.2715 11.8191 63.1619 11.0491 63.4854ZM18.3292 58.7955C18.0092 58.0162 18.3792 57.1277 19.1392 56.8144C19.9092 56.491 20.7792 56.8649 21.0992 57.6331C21.4192 58.4023 21.0492 59.2918 20.2892 59.6142C20.0992 59.6951 19.9092 59.7254 19.7192 59.7254C19.1292 59.7254 18.5692 59.3817 18.3292 58.7955ZM13.7091 60.726C13.3891 59.9568 13.7591 59.0674 14.5192 58.7449C15.2892 58.4306 16.1592 58.7955 16.4792 59.5637C16.7992 60.3429 16.4392 61.2314 15.6692 61.5447C15.4792 61.6256 15.2892 61.666 15.0992 61.666C14.5092 61.666 13.9491 61.3123 13.7091 60.726ZM80.7699 32.6574C81.0799 33.4256 80.7199 34.3161 79.9499 34.6385C79.7699 34.7092 79.5699 34.7497 79.3799 34.7497C78.7898 34.7497 78.2298 34.3959 77.9998 33.8097C77.6798 33.0405 78.0398 32.151 78.8098 31.8286C79.5699 31.5153 80.4499 31.8791 80.7699 32.6574ZM82.6199 31.8791C82.2999 31.111 82.6599 30.2205 83.4299 29.8981C84.1899 29.5746 85.0699 29.9486 85.3899 30.7168C85.6999 31.4961 85.3399 32.3845 84.5699 32.6978C84.3899 32.7787 84.1899 32.8191 83.9999 32.8191C83.4099 32.8191 82.8499 32.4654 82.6199 31.8791ZM76.1498 34.588C76.4598 35.3561 76.0998 36.2456 75.3298 36.569C75.1498 36.6499 74.9498 36.6802 74.7598 36.6802C74.1698 36.6802 73.6098 36.3366 73.3798 35.7503C73.0598 34.971 73.4198 34.0826 74.1898 33.7692C74.9498 33.4458 75.8298 33.8097 76.1498 34.588ZM78.4798 58.7449C79.2399 59.0674 79.6099 59.9568 79.2899 60.726C79.0499 61.3123 78.4898 61.666 77.8998 61.666C77.7098 61.666 77.5198 61.6256 77.3298 61.5447C76.5598 61.2314 76.1998 60.3429 76.5198 59.5637C76.8398 58.7955 77.7098 58.4316 78.4798 58.7449ZM73.8598 56.8144C74.6298 57.1277 74.9898 58.0162 74.6698 58.7955C74.4298 59.3817 73.8698 59.7254 73.2898 59.7254C73.0898 59.7254 72.8998 59.6951 72.7098 59.6142C71.9398 59.2918 71.5798 58.4023 71.8998 57.6331C72.2198 56.8649 73.0898 56.491 73.8598 56.8144ZM83.9099 62.6566C83.6699 63.2418 83.1099 63.5966 82.5199 63.5966C82.3299 63.5966 82.1399 63.5662 81.9499 63.4854C81.1799 63.1629 80.8199 62.2725 81.1399 61.5043C81.4599 60.726 82.3299 60.3622 83.0999 60.6856C83.8599 60.9989 84.2299 61.8874 83.9099 62.6566ZM17.6592 36.569C16.8992 36.2456 16.5392 35.3561 16.8492 34.588C17.1692 33.8097 18.0492 33.4458 18.8092 33.7692C19.5792 34.0826 19.9392 34.971 19.6192 35.7503C19.3792 36.3366 18.8292 36.6802 18.2392 36.6802C18.0492 36.6802 17.8492 36.6499 17.6592 36.569ZM13.0391 34.6385C12.2791 34.3161 11.9191 33.4256 12.2291 32.6574C12.5491 31.8791 13.4291 31.5153 14.1892 31.8296C14.9592 32.152 15.3192 33.0415 15.0092 33.8107C14.7692 34.3969 14.2092 34.7507 13.6191 34.7507C13.4291 34.7497 13.2291 34.7092 13.0391 34.6385ZM7.61908 30.7168C7.92909 29.9486 8.80909 29.5746 9.5691 29.8981C10.3391 30.2205 10.6991 31.111 10.3891 31.8791C10.1491 32.4654 9.5891 32.8191 8.9991 32.8191C8.8091 32.8191 8.60909 32.7787 8.42909 32.6978C7.65908 32.3845 7.29908 31.4951 7.61908 30.7168ZM34.8794 79.3229C34.6394 79.9091 34.0794 80.2528 33.4894 80.2528C33.2994 80.2528 33.1094 80.2234 32.9194 80.1426C32.1493 79.8191 31.7893 78.9398 32.0993 78.1615C32.4193 77.3923 33.2994 77.0193 34.0694 77.3418C34.8294 77.6662 35.1894 78.5456 34.8794 79.3229ZM32.9594 83.9935C32.7193 84.5798 32.1693 84.9234 31.5793 84.9234C31.3893 84.9234 31.1893 84.8941 30.9993 84.8133C30.2393 84.4898 29.8693 83.6004 30.1893 82.8322C30.5093 82.0529 31.3893 81.689 32.1493 82.0125C32.9194 82.3359 33.2794 83.2153 32.9594 83.9935ZM36.7894 74.6532C36.5494 75.2394 35.9894 75.5942 35.3994 75.5942C35.2094 75.5942 35.0194 75.5538 34.8294 75.4729C34.0694 75.1495 33.6994 74.2701 34.0194 73.4918C34.3394 72.7237 35.2094 72.3497 35.9794 72.6721C36.7394 72.9966 37.1094 73.886 36.7894 74.6532ZM60.6497 8.52065C60.9597 7.74237 61.8397 7.37849 62.6097 7.69183C63.3697 8.01527 63.7397 8.90473 63.4197 9.6729C63.1797 10.2581 62.6197 10.6129 62.0297 10.6129C61.8397 10.6129 61.6497 10.5725 61.4597 10.5017C60.6897 10.1773 60.3297 9.28781 60.6497 8.52065ZM58.7296 13.1802C59.0496 12.412 59.9296 12.0482 60.6897 12.3605C61.4597 12.6839 61.8197 13.5734 61.5097 14.3416C61.2697 14.9278 60.7097 15.2826 60.1196 15.2826C59.9296 15.2826 59.7296 15.2422 59.5396 15.1714C58.7796 14.8469 58.4196 13.9585 58.7296 13.1802ZM56.8196 17.8499C57.1396 17.0807 58.0196 16.7077 58.7796 17.0302C59.5396 17.3536 59.9096 18.2431 59.5896 19.0112C59.3496 19.5975 58.7896 19.9523 58.1996 19.9523C58.0096 19.9523 57.8196 19.9118 57.6296 19.831C56.8696 19.5176 56.4996 18.6282 56.8196 17.8499Z"/>
</mask>
<path d="M46.5015 34.6547C39.7664 34.6547 34.2874 40.1926 34.2874 47C34.2874 53.8074 39.7664 59.3453 46.5015 59.3453C53.2366 59.3453 58.7156 53.8064 58.7156 47C58.7156 40.1936 53.2366 34.6547 46.5015 34.6547ZM46.5015 56.3131C41.4204 56.3131 37.2874 52.1346 37.2874 47C37.2874 41.8654 41.4204 37.6869 46.5015 37.6869C51.5826 37.6869 55.7156 41.8654 55.7156 47C55.7156 52.1346 51.5826 56.3131 46.5015 56.3131ZM86.4999 40.4301C83.4329 40.4301 80.8619 42.5911 80.1819 45.4839H72.9998V42.7872C72.9998 41.9503 72.3288 41.2711 71.4998 41.2711H68.1077C67.5927 39.2839 66.8127 37.3888 65.7787 35.6098L68.1837 33.181C68.4647 32.897 68.6227 32.5119 68.6227 32.1086C68.6227 31.7073 68.4647 31.3212 68.1837 31.0362L66.2987 29.1319L71.3758 23.9993C72.3918 24.6351 73.5608 24.9808 74.7838 24.9808C76.5198 24.9808 78.1528 24.2975 79.3799 23.0563C80.6079 21.8151 81.2829 20.1665 81.2829 18.4109C81.2829 16.6552 80.6069 15.0066 79.3799 13.7654C78.1518 12.5242 76.5198 11.841 74.7828 11.841C73.0468 11.841 71.4148 12.5242 70.1868 13.7654C68.9587 15.0066 68.2827 16.6552 68.2827 18.4109C68.2827 19.648 68.6247 20.8296 69.2537 21.8555L64.1757 26.9881L62.2877 25.0808C61.7257 24.5128 60.7287 24.5128 60.1656 25.0808L57.7626 27.5117C56.0016 26.4666 54.1276 25.6802 52.1666 25.1617V21.7312C52.1666 20.8943 51.4956 20.2151 50.6665 20.2151H47.9995V12.9558C50.8615 12.2685 52.9996 9.66987 52.9996 6.56989C52.9996 2.94735 50.0835 0 46.4995 0C42.9155 0 39.9994 2.94735 39.9994 6.56989C39.9994 9.66987 42.1375 12.2685 44.9995 12.9558V20.2151H42.3355C41.5064 20.2151 40.8354 20.8943 40.8354 21.7312V25.1627C38.8744 25.6812 36.9984 26.4676 35.2354 27.5127L32.8314 25.0818C32.5504 24.7978 32.1683 24.6381 31.7703 24.6381C31.3723 24.6381 30.9913 24.7978 30.7093 25.0818L28.8213 26.9901L23.7433 21.8575C24.3713 20.8316 24.7143 19.65 24.7143 18.4129C24.7143 16.6582 24.0383 15.0087 22.8102 13.7675C21.5822 12.5252 19.9502 11.843 18.2142 11.843C16.4782 11.843 14.8452 12.5273 13.6181 13.7675C12.3911 15.0077 11.7141 16.6572 11.7141 18.4129C11.7141 20.1686 12.3901 21.8171 13.6171 23.0583C14.8452 24.3005 16.4772 24.9828 18.2132 24.9828C19.4372 24.9828 20.6062 24.6371 21.6212 24.0013L26.6993 29.1339L24.8133 31.0402C24.5323 31.3242 24.3743 31.7103 24.3743 32.1126C24.3743 32.5149 24.5323 32.9 24.8133 33.185L27.2193 35.6149C26.1843 37.3989 25.4063 39.294 24.8933 41.2731H21.4992C21.1012 41.2731 20.7202 41.4328 20.4382 41.7168C20.1562 42.0008 19.9992 42.3869 19.9992 42.7892L20.0002 45.4859H12.8181C12.1381 42.5931 9.5671 40.4321 6.50007 40.4321C2.91603 40.4321 0 43.3795 0 47.002C0 50.6246 2.91603 53.5719 6.50007 53.5719C9.5671 53.5719 12.1381 51.4109 12.8181 48.5182H20.0012L20.0022 51.2108C20.0022 52.0487 20.6742 52.7269 21.5022 52.7269H24.8963C25.4083 54.71 26.1873 56.6062 27.2223 58.3861L24.8153 60.819C24.5343 61.103 24.3763 61.4891 24.3763 61.8914C24.3763 62.2937 24.5343 62.6788 24.8153 62.9638L26.7023 64.8701L21.6242 70.0027C20.6092 69.367 19.4392 69.0213 18.2162 69.0213C16.4802 69.0213 14.8472 69.7056 13.6201 70.9457C12.3931 72.1859 11.7161 73.8355 11.7161 75.5912C11.7161 77.3468 12.3921 78.9954 13.6191 80.2366C14.8472 81.4778 16.4792 82.1611 18.2162 82.1611C19.9522 82.1611 21.5842 81.4778 22.8122 80.2366C24.0403 78.9954 24.7163 77.3468 24.7163 75.5912C24.7163 74.354 24.3743 73.1724 23.7453 72.1465L28.8233 67.0129L30.7083 68.9172C31.2943 69.5095 32.2433 69.5095 32.8294 68.9172L35.2334 66.4883C36.9974 67.5344 38.8744 68.3218 40.8354 68.8403V72.2688C40.8354 73.1057 41.5064 73.7849 42.3355 73.7849H44.9995V81.0442C42.1375 81.7315 39.9994 84.3301 39.9994 87.4301C39.9994 91.0526 42.9155 94 46.4995 94C50.0835 94 52.9996 91.0526 52.9996 87.4301C52.9996 84.3301 50.8615 81.7315 47.9995 81.0442V73.7849H50.6675C51.4966 73.7849 52.1676 73.1057 52.1676 72.2688V68.8373C54.1296 68.3188 56.0056 67.5314 57.7686 66.4853L60.1736 68.9161C60.7357 69.4842 61.7327 69.4842 62.2957 68.9161L64.1787 67.0119L69.2547 72.1435C68.6267 73.1694 68.2837 74.351 68.2837 75.5881C68.2837 77.3428 68.9597 78.9923 70.1878 80.2335C71.4158 81.4758 73.0478 82.158 74.7838 82.158C76.5198 82.158 78.1528 81.4737 79.3799 80.2335C80.6069 78.9934 81.2839 77.3438 81.2839 75.5881C81.2839 73.8325 80.6079 72.1839 79.3809 70.9427C78.1528 69.7015 76.5208 69.0182 74.7838 69.0182C73.5598 69.0182 72.3908 69.3639 71.3758 69.9997L66.2997 64.8681L68.1867 62.9608C68.7717 62.3685 68.7717 61.4093 68.1867 60.817L65.7837 58.3881C66.8187 56.6042 67.5977 54.707 68.1107 52.7249H71.4998C72.3288 52.7249 72.9998 52.0457 72.9998 51.2088V48.5161H80.1819C80.8619 51.4089 83.4329 53.5699 86.4999 53.5699C90.084 53.5699 93 50.6225 93 47C93 43.3775 90.084 40.4301 86.4999 40.4301ZM72.3088 15.9103C72.9708 15.2421 73.8498 14.8742 74.7838 14.8742C75.7188 14.8742 76.5978 15.2421 77.2588 15.9103C77.9198 16.5784 78.2838 17.4668 78.2838 18.4119C78.2838 19.3569 77.9198 20.2444 77.2588 20.9135C75.9378 22.2497 73.6328 22.2497 72.3088 20.9135C71.6478 20.2454 71.2838 19.3569 71.2838 18.4119C71.2838 17.4668 71.6478 16.5784 72.3088 15.9103ZM42.9995 6.56989C42.9995 4.61914 44.5695 3.03226 46.4995 3.03226C48.4295 3.03226 49.9995 4.61914 49.9995 6.56989C49.9995 8.52065 48.4295 10.1075 46.4995 10.1075C44.5695 10.1075 42.9995 8.52065 42.9995 6.56989ZM15.7402 20.9125C15.0782 20.2444 14.7152 19.3559 14.7152 18.4109C14.7152 17.4658 15.0792 16.5784 15.7402 15.9092C16.4012 15.2411 17.2802 14.8732 18.2152 14.8732C19.1502 14.8732 20.0282 15.2411 20.6902 15.9092C21.3512 16.5774 21.7152 17.4658 21.7152 18.4109C21.7152 19.3559 21.3512 20.2434 20.6902 20.9125C19.3662 22.2497 17.0612 22.2497 15.7402 20.9125ZM6.49907 50.5376C4.56905 50.5376 2.99903 48.9508 2.99903 47C2.99903 45.0492 4.56905 43.4624 6.49907 43.4624C8.42909 43.4624 9.99911 45.0492 9.99911 47C9.99911 48.9508 8.42909 50.5376 6.49907 50.5376ZM20.6902 78.0897C19.3662 79.426 17.0622 79.4249 15.7402 78.0897C15.0792 77.4216 14.7152 76.5332 14.7152 75.5881C14.7152 74.6431 15.0792 73.7556 15.7402 73.0865C16.4012 72.4184 17.2802 72.0505 18.2152 72.0505C19.1502 72.0505 20.0282 72.4184 20.6902 73.0865C21.3512 73.7546 21.7152 74.6431 21.7152 75.5881C21.7152 76.5332 21.3512 77.4216 20.6902 78.0897ZM49.9995 87.4301C49.9995 89.3809 48.4295 90.9677 46.4995 90.9677C44.5695 90.9677 42.9995 89.3809 42.9995 87.4301C42.9995 85.4794 44.5695 83.8925 46.4995 83.8925C48.4295 83.8925 49.9995 85.4794 49.9995 87.4301ZM77.2588 73.0875C77.9198 73.7556 78.2838 74.6441 78.2838 75.5891C78.2838 76.5342 77.9198 77.4216 77.2588 78.0908C75.9378 79.426 73.6328 79.428 72.3088 78.0908C71.6478 77.4226 71.2838 76.5342 71.2838 75.5891C71.2838 74.6441 71.6478 73.7566 72.3088 73.0875C72.9708 72.4194 73.8498 72.0515 74.7838 72.0515C75.7188 72.0505 76.5978 72.4184 77.2588 73.0875ZM69.9997 49.6926H66.9177C66.2047 49.6926 65.5887 50.2011 65.4477 50.9076C64.9577 53.3516 64.0087 55.6611 62.6277 57.7706C62.2337 58.372 62.3137 59.1705 62.8177 59.6799L65.0037 61.8894L63.1197 63.7947L63.1167 63.7967L63.1147 63.7997L61.2337 65.702L59.0456 63.4904C58.5426 62.981 57.7526 62.9002 57.1566 63.2994C55.0736 64.6942 52.7896 65.6524 50.3685 66.1487C49.6695 66.2922 49.1665 66.9128 49.1665 67.6345V70.7527H43.8345V67.6335C43.8345 66.9118 43.3315 66.2912 42.6325 66.1477C40.2144 65.6524 37.9294 64.6932 35.8414 63.2974C35.2454 62.9002 34.4564 62.98 33.9534 63.4894L31.7683 65.6989L27.9963 61.8884L30.1853 59.6758C30.6903 59.1654 30.7693 58.3669 30.3743 57.7655C28.9943 55.6611 28.0463 53.3546 27.5573 50.9086C27.4163 50.2011 26.8013 49.6926 26.0873 49.6926H23.0012L22.9992 44.3033H26.0863C26.7993 44.3033 27.4153 43.7949 27.5563 43.0884C28.0453 40.6494 28.9933 38.3409 30.3743 36.2284C30.7673 35.627 30.6873 34.8295 30.1833 34.3201L27.9963 32.1106L31.7683 28.298L33.9544 30.5086C34.4594 31.018 35.2474 31.0988 35.8434 30.7006C37.9284 29.3058 40.2124 28.3476 42.6325 27.8523C43.3315 27.7088 43.8345 27.0882 43.8345 26.3665V23.2473H49.1665V26.3665C49.1665 27.0882 49.6685 27.7088 50.3685 27.8523C52.7876 28.3486 55.0706 29.3058 57.1536 30.7006C57.7496 31.0988 58.5386 31.019 59.0426 30.5086L61.2287 28.297L65.0007 32.1086L62.8137 34.3181C62.3087 34.8275 62.2297 35.627 62.6247 36.2284C64.0027 38.3288 64.9527 40.6373 65.4477 43.0904C65.5907 43.7959 66.2047 44.3033 66.9177 44.3033H69.9997V49.6926ZM86.4999 50.5376C84.5699 50.5376 82.9999 48.9508 82.9999 47C82.9999 45.0492 84.5699 43.4624 86.4999 43.4624C88.4299 43.4624 90 45.0492 90 47C90 48.9508 88.4299 50.5376 86.4999 50.5376ZM60.0796 80.1426C59.8996 80.2234 59.6996 80.2528 59.5096 80.2528C58.9196 80.2528 58.3596 79.9091 58.1196 79.3229C57.8096 78.5446 58.1696 77.6652 58.9396 77.3418C59.6996 77.0193 60.5797 77.3923 60.8897 78.1615C61.2097 78.9398 60.8497 79.8191 60.0796 80.1426ZM58.1696 75.4729C57.9796 75.5538 57.7896 75.5942 57.5996 75.5942C57.0096 75.5942 56.4496 75.2394 56.2096 74.6532C55.8896 73.885 56.2496 72.9956 57.0196 72.6721C57.7896 72.3497 58.6596 72.7237 58.9796 73.4918C59.2996 74.2691 58.9396 75.1495 58.1696 75.4729ZM62.8097 82.8312C63.1197 83.5993 62.7597 84.4888 61.9997 84.8123C61.8097 84.8931 61.6097 84.9224 61.4197 84.9224C60.8297 84.9224 60.2696 84.5788 60.0396 83.9925C59.7196 83.2143 60.0796 82.3349 60.8497 82.0115C61.6097 81.688 62.4897 82.0529 62.8097 82.8312ZM34.2194 17.0312C34.9794 16.7088 35.8594 17.0817 36.1794 17.8509C36.4994 18.6292 36.1294 19.5176 35.3694 19.832C35.1794 19.9128 34.9894 19.9533 34.7994 19.9533C34.2094 19.9533 33.6494 19.5985 33.4094 19.0123C33.0894 18.2441 33.4494 17.3546 34.2194 17.0312ZM32.3093 12.3605C33.0694 12.0472 33.9494 12.412 34.2694 13.1802C34.5794 13.9585 34.2194 14.8469 33.4494 15.1714C33.2694 15.2422 33.0694 15.2826 32.8794 15.2826C32.2893 15.2826 31.7293 14.9278 31.4893 14.3416C31.1793 13.5744 31.5393 12.6849 32.3093 12.3605ZM29.5793 9.67189C29.2593 8.90372 29.6293 8.01426 30.3893 7.69082C31.1593 7.37748 32.0393 7.74237 32.3493 8.51963C32.6693 9.28781 32.3093 10.1773 31.5393 10.5007C31.3493 10.5725 31.1593 10.6129 30.9693 10.6129C30.3793 10.6129 29.8193 10.2581 29.5793 9.67189ZM11.0491 63.4854C10.8591 63.5662 10.6691 63.5966 10.4791 63.5966C9.88911 63.5966 9.3291 63.2418 9.0891 62.6566C8.76909 61.8874 9.1391 60.9979 9.89911 60.6856C10.6691 60.3622 11.5391 60.726 11.8591 61.5043C12.1791 62.2715 11.8191 63.1619 11.0491 63.4854ZM18.3292 58.7955C18.0092 58.0162 18.3792 57.1277 19.1392 56.8144C19.9092 56.491 20.7792 56.8649 21.0992 57.6331C21.4192 58.4023 21.0492 59.2918 20.2892 59.6142C20.0992 59.6951 19.9092 59.7254 19.7192 59.7254C19.1292 59.7254 18.5692 59.3817 18.3292 58.7955ZM13.7091 60.726C13.3891 59.9568 13.7591 59.0674 14.5192 58.7449C15.2892 58.4306 16.1592 58.7955 16.4792 59.5637C16.7992 60.3429 16.4392 61.2314 15.6692 61.5447C15.4792 61.6256 15.2892 61.666 15.0992 61.666C14.5092 61.666 13.9491 61.3123 13.7091 60.726ZM80.7699 32.6574C81.0799 33.4256 80.7199 34.3161 79.9499 34.6385C79.7699 34.7092 79.5699 34.7497 79.3799 34.7497C78.7898 34.7497 78.2298 34.3959 77.9998 33.8097C77.6798 33.0405 78.0398 32.151 78.8098 31.8286C79.5699 31.5153 80.4499 31.8791 80.7699 32.6574ZM82.6199 31.8791C82.2999 31.111 82.6599 30.2205 83.4299 29.8981C84.1899 29.5746 85.0699 29.9486 85.3899 30.7168C85.6999 31.4961 85.3399 32.3845 84.5699 32.6978C84.3899 32.7787 84.1899 32.8191 83.9999 32.8191C83.4099 32.8191 82.8499 32.4654 82.6199 31.8791ZM76.1498 34.588C76.4598 35.3561 76.0998 36.2456 75.3298 36.569C75.1498 36.6499 74.9498 36.6802 74.7598 36.6802C74.1698 36.6802 73.6098 36.3366 73.3798 35.7503C73.0598 34.971 73.4198 34.0826 74.1898 33.7692C74.9498 33.4458 75.8298 33.8097 76.1498 34.588ZM78.4798 58.7449C79.2399 59.0674 79.6099 59.9568 79.2899 60.726C79.0499 61.3123 78.4898 61.666 77.8998 61.666C77.7098 61.666 77.5198 61.6256 77.3298 61.5447C76.5598 61.2314 76.1998 60.3429 76.5198 59.5637C76.8398 58.7955 77.7098 58.4316 78.4798 58.7449ZM73.8598 56.8144C74.6298 57.1277 74.9898 58.0162 74.6698 58.7955C74.4298 59.3817 73.8698 59.7254 73.2898 59.7254C73.0898 59.7254 72.8998 59.6951 72.7098 59.6142C71.9398 59.2918 71.5798 58.4023 71.8998 57.6331C72.2198 56.8649 73.0898 56.491 73.8598 56.8144ZM83.9099 62.6566C83.6699 63.2418 83.1099 63.5966 82.5199 63.5966C82.3299 63.5966 82.1399 63.5662 81.9499 63.4854C81.1799 63.1629 80.8199 62.2725 81.1399 61.5043C81.4599 60.726 82.3299 60.3622 83.0999 60.6856C83.8599 60.9989 84.2299 61.8874 83.9099 62.6566ZM17.6592 36.569C16.8992 36.2456 16.5392 35.3561 16.8492 34.588C17.1692 33.8097 18.0492 33.4458 18.8092 33.7692C19.5792 34.0826 19.9392 34.971 19.6192 35.7503C19.3792 36.3366 18.8292 36.6802 18.2392 36.6802C18.0492 36.6802 17.8492 36.6499 17.6592 36.569ZM13.0391 34.6385C12.2791 34.3161 11.9191 33.4256 12.2291 32.6574C12.5491 31.8791 13.4291 31.5153 14.1892 31.8296C14.9592 32.152 15.3192 33.0415 15.0092 33.8107C14.7692 34.3969 14.2092 34.7507 13.6191 34.7507C13.4291 34.7497 13.2291 34.7092 13.0391 34.6385ZM7.61908 30.7168C7.92909 29.9486 8.80909 29.5746 9.5691 29.8981C10.3391 30.2205 10.6991 31.111 10.3891 31.8791C10.1491 32.4654 9.5891 32.8191 8.9991 32.8191C8.8091 32.8191 8.60909 32.7787 8.42909 32.6978C7.65908 32.3845 7.29908 31.4951 7.61908 30.7168ZM34.8794 79.3229C34.6394 79.9091 34.0794 80.2528 33.4894 80.2528C33.2994 80.2528 33.1094 80.2234 32.9194 80.1426C32.1493 79.8191 31.7893 78.9398 32.0993 78.1615C32.4193 77.3923 33.2994 77.0193 34.0694 77.3418C34.8294 77.6662 35.1894 78.5456 34.8794 79.3229ZM32.9594 83.9935C32.7193 84.5798 32.1693 84.9234 31.5793 84.9234C31.3893 84.9234 31.1893 84.8941 30.9993 84.8133C30.2393 84.4898 29.8693 83.6004 30.1893 82.8322C30.5093 82.0529 31.3893 81.689 32.1493 82.0125C32.9194 82.3359 33.2794 83.2153 32.9594 83.9935ZM36.7894 74.6532C36.5494 75.2394 35.9894 75.5942 35.3994 75.5942C35.2094 75.5942 35.0194 75.5538 34.8294 75.4729C34.0694 75.1495 33.6994 74.2701 34.0194 73.4918C34.3394 72.7237 35.2094 72.3497 35.9794 72.6721C36.7394 72.9966 37.1094 73.886 36.7894 74.6532ZM60.6497 8.52065C60.9597 7.74237 61.8397 7.37849 62.6097 7.69183C63.3697 8.01527 63.7397 8.90473 63.4197 9.6729C63.1797 10.2581 62.6197 10.6129 62.0297 10.6129C61.8397 10.6129 61.6497 10.5725 61.4597 10.5017C60.6897 10.1773 60.3297 9.28781 60.6497 8.52065ZM58.7296 13.1802C59.0496 12.412 59.9296 12.0482 60.6897 12.3605C61.4597 12.6839 61.8197 13.5734 61.5097 14.3416C61.2697 14.9278 60.7097 15.2826 60.1196 15.2826C59.9296 15.2826 59.7296 15.2422 59.5396 15.1714C58.7796 14.8469 58.4196 13.9585 58.7296 13.1802ZM56.8196 17.8499C57.1396 17.0807 58.0196 16.7077 58.7796 17.0302C59.5396 17.3536 59.9096 18.2431 59.5896 19.0112C59.3496 19.5975 58.7896 19.9523 58.1996 19.9523C58.0096 19.9523 57.8196 19.9118 57.6296 19.831C56.8696 19.5176 56.4996 18.6282 56.8196 17.8499Z" fill="#2DA1D9" stroke="white" stroke-width="1.4" mask="url(#path-1-inside-1_803_16)"/>
</svg>
