<svg width="100" height="37" viewBox="0 0 100 37" fill="none" xmlns="http://www.w3.org/2000/svg">
<path d="M44.7822 36.7906C44.4181 36.7906 44.1632 36.6966 44.0176 36.5086C43.8482 36.2492 43.7685 35.9272 43.7936 35.6044V1.81661C43.7936 1.39894 43.8664 1.11074 44.0176 0.939493C44.1687 0.768246 44.4217 0.680536 44.7822 0.680536H67.2288C67.5104 0.652278 67.7912 0.744514 68.0171 0.939493C68.181 1.11074 68.2647 1.40311 68.2647 1.81661V8.00655C68.2647 8.80013 67.9188 9.19483 67.2288 9.19483H52.1175V35.6127C52.1175 36.4049 51.7728 36.8003 51.0834 36.7989L44.7822 36.7906Z" fill="white"/>
<path d="M92.5316 0.67218C95.1411 0.67218 97.0382 1.3516 98.2229 2.71043C99.4075 4.06927 99.9998 6.24534 99.9998 9.23867V14.9128C99.9998 17.9047 99.4075 20.0808 98.2229 21.441C97.0382 22.8013 95.1411 23.4807 92.5316 23.4793H79.8909V35.6044C79.8909 36.3965 79.5462 36.792 78.8568 36.7906H72.5592C72.1951 36.7906 71.9402 36.6966 71.7946 36.5086C71.6246 36.2495 71.5442 35.9274 71.5688 35.6044V1.8166C71.5688 1.39893 71.6435 1.11073 71.7946 0.939485C71.9457 0.768239 72.1988 0.680529 72.5592 0.680529L92.5316 0.67218ZM91.6777 10.8363C91.6777 9.84013 91.5193 9.16558 91.2043 8.80012C90.8894 8.43465 90.294 8.25715 89.4274 8.25715H79.8909V15.8943H89.4274C90.2977 15.8943 90.89 15.7133 91.2043 15.3513C91.5187 14.9894 91.6765 14.3099 91.6777 13.3131V10.8363Z" fill="white"/>
<path d="M27.9447 0.647095C27.4327 0.647019 26.933 0.827852 26.5137 1.16501C26.0955 1.50265 25.7778 1.97938 25.6034 2.5308L23.1747 10.1951L20.4783 18.7094L19.6572 21.3596L19.6372 21.441L19.1711 22.9425L17.0136 30.6862L16.7824 31.5007L15.4352 35.7568C15.3282 36.0631 15.1575 36.3348 14.9381 36.5483C14.6965 36.7245 14.4116 36.8059 14.1261 36.7801H8.22546C7.44441 36.7801 7.06026 36.4543 7.06026 35.8048C7.05668 35.5712 7.10161 35.34 7.19134 35.1303L11.2331 22.7504H14.8598V18.5236H13.5963V16.3579H18.2954V10.2035H19.5698V0.647095H27.9447Z" fill="white"/>
<path d="M19.1657 22.953H19.2058L17.0138 30.6967H17.0083L19.1657 22.953Z" fill="url(#paint0_linear_312_9)"/>
<path d="M37.973 28.3243C37.973 28.3368 37.9621 28.3243 37.942 28.2428C37.8401 27.9296 37.7491 27.6038 37.6689 27.278C37.7864 27.6204 37.8879 27.9696 37.973 28.3243Z" fill="white"/>
<path d="M18.5506 0.655457H16.5425V2.95684H18.5506V0.655457Z" fill="white"/>
<path d="M13.8477 19.6889H12.1836V21.5977H13.8477V19.6889Z" fill="white"/>
<path d="M18.5506 4.3999V9.06741H14.4814V6.66161H16.4532V4.3999H18.5506Z" fill="white"/>
<path d="M12.5826 14.6476H9.20898V18.5173H12.5826V14.6476Z" fill="white"/>
<path d="M8.19482 16.5772H8.21485V14.28H8.19482V16.5772Z" fill="white"/>
<path d="M17.2815 10.9678H13.5947V15.1968H17.2815V10.9678Z" fill="white"/>
<path d="M8.72638 1.60571H7.05322V3.52493H8.72638V1.60571Z" fill="white"/>
<path d="M5.79676 3.13019H3.58105V5.67174H5.79676V3.13019Z" fill="white"/>
<path d="M6.69092 10.7235H5.2417V12.3859H6.69092V10.7235Z" fill="white"/>
<path d="M1.10694 2.52875H0V3.79848H1.10694V2.52875Z" fill="white"/>
<path d="M4.32206 6.73468H2.729V8.56201H4.32206V6.73468Z" fill="white"/>
<path d="M15.4387 0.830872H11.3696V5.49838H15.4387V0.830872Z" fill="white"/>
<path d="M8.21465 14.2884H6.21924V16.5772H8.21465V14.2884Z" fill="white"/>
<path d="M12.3566 9.76703H9.46729V13.0813H12.3566V9.76703Z" fill="white"/>
<path d="M10.3995 4.81549H7.05322V8.65392H10.3995V4.81549Z" fill="white"/>
<path d="M40.2833 35.7672C40.2833 36.4543 39.9082 36.7905 39.1581 36.7905H33.2574C32.9726 36.8168 32.688 36.7354 32.4473 36.5587C32.2269 36.3463 32.0561 36.0743 31.9502 35.7672L30.339 30.6967H17.0083L19.1658 22.953H28.2689L26.8798 18.7199L24.2235 10.2056H23.1784L25.6071 2.54123C25.7816 1.98982 26.0993 1.51309 26.5175 1.17544C26.9368 0.838289 27.4364 0.657456 27.9485 0.657532C28.6076 0.657532 29.0409 0.983314 29.2557 1.6328L31.5643 8.67061L35.4076 20.4595L35.4386 20.5618C35.6006 21.0839 36.3361 23.4584 36.7512 24.6007L36.7949 24.7197L36.8059 24.7323L37.9365 28.2428C37.951 28.2867 37.962 28.3097 37.9656 28.3201L40.1849 35.1365C40.2388 35.3417 40.2718 35.5534 40.2833 35.7672Z" fill="url(#paint1_linear_312_9)"/>
<defs>
<linearGradient id="paint0_linear_312_9" x1="17.0083" y1="26.8248" x2="19.2058" y2="26.8248" gradientUnits="userSpaceOnUse">
<stop offset="0.23" stop-color="#2DA1D9"/>
<stop offset="0.84" stop-color="#2DA1D9"/>
</linearGradient>
<linearGradient id="paint1_linear_312_9" x1="35.0544" y1="39.8249" x2="14.6482" y2="9.01028" gradientUnits="userSpaceOnUse">
<stop offset="0.19" stop-color="#C2C2C2"/>
<stop offset="0.75" stop-color="#A7A7A7"/>
<stop offset="0.93" stop-color="#878787"/>
</linearGradient>
</defs>
</svg>
