<svg width="100" height="32" viewBox="0 0 100 32" fill="none" xmlns="http://www.w3.org/2000/svg">
<path d="M44.7822 31.5097C44.4181 31.5097 44.1632 31.4278 44.0176 31.2639C43.8482 31.0377 43.7685 30.757 43.7936 30.4756V1.01956C43.7936 0.655436 43.8664 0.404187 44.0176 0.254895C44.1687 0.105603 44.4217 0.0291387 44.7822 0.0291387H67.2288C67.5104 0.00450323 67.7912 0.0849138 68.0171 0.254895C68.181 0.404187 68.2647 0.659078 68.2647 1.01956V6.41592C68.2647 7.10776 67.9188 7.45186 67.2288 7.45186H52.1175V30.4829C52.1175 31.1735 51.7728 31.5182 51.0834 31.517L44.7822 31.5097Z" fill="#2DA1D9"/>
<path d="M92.5316 0.0218506C95.1411 0.0218506 97.0382 0.614165 98.2229 1.79879C99.4075 2.98341 99.9998 4.8805 99.9998 7.49007V12.4367C99.9998 15.0451 99.4075 16.9422 98.2229 18.128C97.0382 19.3139 95.1411 19.9062 92.5316 19.905H79.8909V30.4755C79.8909 31.1662 79.5462 31.5109 78.8568 31.5097H72.5592C72.1951 31.5097 71.9402 31.4277 71.7946 31.2639C71.6246 31.038 71.5442 30.7572 71.5688 30.4755V1.01955C71.5688 0.655427 71.6435 0.404177 71.7946 0.254886C71.9457 0.105594 72.1988 0.0291291 72.5592 0.0291291L92.5316 0.0218506ZM91.6777 8.88286C91.6777 8.01442 91.5193 7.42636 91.2043 7.10775C90.8894 6.78914 90.294 6.63439 89.4274 6.63439H79.8909V13.2924H89.4274C90.2977 13.2924 90.89 13.1346 91.2043 12.8191C91.5187 12.5035 91.6765 11.9112 91.6777 11.0421V8.88286Z" fill="#2DA1D9"/>
<path d="M27.9447 2.05099e-08C27.4327 -6.56521e-05 26.933 0.157583 26.5137 0.451513C26.0955 0.745872 25.7778 1.16148 25.6034 1.6422L23.1747 8.32392L20.4783 15.7466L19.6572 18.057L19.6372 18.128L19.1711 19.4371L17.0136 26.188L16.7824 26.898L15.4352 30.6085C15.3282 30.8755 15.1575 31.1124 14.9381 31.2985C14.6965 31.4521 14.4116 31.5231 14.1261 31.5006H8.22546C7.44441 31.5006 7.06026 31.2165 7.06026 30.6503C7.05668 30.4467 7.10161 30.2451 7.19134 30.0623L11.2331 19.2696H14.8598V15.5846H13.5963V13.6966H18.2954V8.3312H19.5698V2.05099e-08H27.9447Z" fill="#2DA1D9"/>
<path d="M19.1657 19.4462H19.2058L17.0138 26.1971H17.0083L19.1657 19.4462Z" fill="url(#paint0_linear_153_187)"/>
<path d="M37.973 24.1288C37.973 24.1397 37.9621 24.1288 37.942 24.0578C37.8401 23.7847 37.7491 23.5007 37.6689 23.2167C37.7864 23.5151 37.8879 23.8196 37.973 24.1288Z" fill="#2DA1D9"/>
<path d="M18.5506 0.00726318H16.5425V2.0136H18.5506V0.00726318Z" fill="#2DA1D9"/>
<path d="M13.8477 16.6005H12.1836V18.2646H13.8477V16.6005Z" fill="#2DA1D9"/>
<path d="M18.5506 3.27167V7.34078H14.4814V5.24341H16.4532V3.27167H18.5506Z" fill="#215ECC"/>
<path d="M12.5826 12.2055H9.20898V15.5791H12.5826V12.2055Z" fill="#215ECC"/>
<path d="M8.19482 13.8878H8.21485V11.8851H8.19482V13.8878Z" fill="white"/>
<path d="M17.2815 8.99756H13.5947V12.6843H17.2815V8.99756Z" fill="#2DA1D9"/>
<path d="M8.72638 0.835693H7.05322V2.50885H8.72638V0.835693Z" fill="#BF0C7B"/>
<path d="M5.79676 2.16473H3.58105V4.38044H5.79676V2.16473Z" fill="#BF0C7B"/>
<path d="M6.69092 8.78455H5.2417V10.2338H6.69092V8.78455Z" fill="#BF0C7B"/>
<path d="M1.10694 1.64038H0V2.74733H1.10694V1.64038Z" fill="#BF0C7B"/>
<path d="M4.32206 5.30713H2.729V6.90018H4.32206V5.30713Z" fill="#BF0C7B"/>
<path d="M15.4387 0.160217H11.3696V4.22933H15.4387V0.160217Z" fill="#BF0C7B"/>
<path d="M8.21465 11.8924H6.21924V13.8878H8.21465V11.8924Z" fill="#BF0C7B"/>
<path d="M12.3566 7.95068H9.46729V10.84H12.3566V7.95068Z" fill="#215ECC"/>
<path d="M10.3995 3.63397H7.05322V6.98029H10.3995V3.63397Z" fill="#BF0C7B"/>
<path d="M40.2833 30.6176C40.2833 31.2165 39.9082 31.5097 39.1581 31.5097H33.2574C32.9726 31.5325 32.688 31.4616 32.4473 31.3076C32.2269 31.1224 32.0561 30.8852 31.9502 30.6176L30.339 26.1971H17.0083L19.1658 19.4462H28.2689L26.8798 15.7557L24.2235 8.33302H23.1784L25.6071 1.6513C25.7816 1.17057 26.0993 0.754966 26.5175 0.460607C26.9368 0.166677 27.4364 0.00902859 27.9485 0.00909426C28.6076 0.00909426 29.0409 0.29311 29.2557 0.859326L31.5643 6.99486L35.4076 17.2723L35.4386 17.3615C35.6006 17.8167 36.3361 19.8867 36.7512 20.8826L36.7949 20.9864L36.8059 20.9973L37.9365 24.0578C37.951 24.096 37.962 24.1161 37.9656 24.1252L40.1849 30.0677C40.2388 30.2466 40.2718 30.4311 40.2833 30.6176Z" fill="url(#paint1_linear_153_187)"/>
<defs>
<linearGradient id="paint0_linear_153_187" x1="17.0083" y1="22.8216" x2="19.2058" y2="22.8216" gradientUnits="userSpaceOnUse">
<stop offset="0.23" stop-color="#2DA1D9"/>
<stop offset="0.84" stop-color="#2DA1D9"/>
</linearGradient>
<linearGradient id="paint1_linear_153_187" x1="35.0544" y1="34.155" x2="18.321" y2="5.17058" gradientUnits="userSpaceOnUse">
<stop offset="0.19" stop-color="#2DA1D9"/>
<stop offset="0.75" stop-color="#2E4DA3"/>
<stop offset="0.93" stop-color="#2E3190"/>
</linearGradient>
</defs>
</svg>
